<svg width="38" height="64" viewBox="0 0 38 64" fill="none" xmlns="http://www.w3.org/2000/svg">
<path fill-rule="evenodd" clip-rule="evenodd" d="M20.001 49.1684C22.2779 49.3992 27.5189 47.3132 29.7958 45.6888C31.6639 44.3557 33.2498 42.6653 34.4617 40.7151C35.6737 38.765 36.4878 36.5939 36.8569 34.327C37.3136 31.5443 37.0765 32.2411 37.0765 29.6891C37.0765 28.9945 36.8569 28.0669 36.6198 27.1394C35.2541 21.5739 34.1146 20.8771 32.975 17.8635L20.6795 29.4583C19.54 30.6167 19.9966 30.8497 19.9966 33.3995V49.1684H20.001Z" fill="#399F64"/>
<path fill-rule="evenodd" clip-rule="evenodd" d="M1.77734 23.1987L17.048 37.8071C17.2675 36.8795 17.048 23.1987 17.048 20.6468C17.048 20.183 17.2675 18.5608 16.8284 18.097L8.84728 10.4434C7.0249 12.3095 2.69731 20.416 1.77734 23.1987Z" fill="#399F64"/>
<path fill-rule="evenodd" clip-rule="evenodd" d="M16.8178 49.3927C17.2723 48.6981 17.0374 44.757 17.0374 43.5964C17.0374 41.9742 17.4919 42.205 15.8978 40.8137L0.864349 26.2053C-2.7804 37.3363 5.64862 48.0013 15.8978 49.1619C16.5895 49.1619 16.3633 48.9289 16.8178 49.3927Z" fill="#399F64"/>
<path fill-rule="evenodd" clip-rule="evenodd" d="M20.0015 26.2031L31.3902 15.3051C30.4812 12.9862 22.2805 2.31896 20.0015 0V26.2031Z" fill="#399F64"/>
<path fill-rule="evenodd" clip-rule="evenodd" d="M10.4424 8.3524L17.0468 14.6125C17.5035 13.9179 17.2664 5.10586 17.2664 3.71449C17.2664 2.55391 17.486 0.931734 17.2664 0.00415039C15.6812 1.39113 11.3536 6.72364 10.4424 8.3524Z" fill="#399F64"/>
<path fill-rule="evenodd" clip-rule="evenodd" d="M17.2762 63.3044C18.1874 64.232 18.8702 64.232 19.7814 63.3044C20.001 63.0736 20.001 62.3768 20.001 61.913V54.7253C20.001 53.7978 20.2205 52.4064 19.7814 51.7096H17.05C17.05 52.3998 16.8217 62.834 17.2762 63.3044Z" fill="#399F64"/>
</svg>
